<svg xmlns="http://www.w3.org/2000/svg" width="63.556" height="52" viewBox="0 0 63.556 52" fill="none">
  <path d="M 11.122 2.438 L 11.122 8.938 C 11.122 10.284 10.055 11.375 8.739 11.375 L 2.383 11.375 C 1.067 11.375 0 12.466 0 13.813 L 0 39 C 0 46.18 5.69 52 12.711 52 L 39.064 52 C 39.485 52 39.89 51.829 40.188 51.525 L 49.488 42.012 C 49.989 41.5 50.845 41.862 50.845 42.587 L 50.845 50.375 C 50.845 51.273 51.556 52 52.434 52 L 61.967 52 C 62.845 52 63.556 51.273 63.556 50.375 L 63.556 13 C 63.554 5.822 57.864 0 50.843 0 L 13.505 0 C 12.188 0 11.122 1.091 11.122 2.438 Z M 47.665 39 L 15.888 39 C 14.133 39 12.711 37.546 12.711 35.75 L 12.711 16.25 C 12.711 14.454 14.133 13 15.888 13 L 47.665 13 C 49.421 13 50.843 14.454 50.843 16.25 L 50.843 35.75 C 50.843 37.546 49.421 39 47.665 39 Z" fill="currentColor" fill-rule="nonzero"></path>
  <path d="M 63.556 13 L 64.133 13 L 64.133 13 L 63.556 13 Z M 10.544 2.438 L 10.544 8.938 L 11.7 8.938 L 11.7 2.438 L 10.544 2.438 Z M 10.544 8.938 C 10.544 9.977 9.724 10.797 8.739 10.797 L 8.739 11.953 C 10.387 11.953 11.7 10.591 11.7 8.938 L 10.544 8.938 Z M 8.739 10.797 L 2.383 10.797 L 2.383 11.953 L 8.739 11.953 L 8.739 10.797 Z M 2.383 10.797 C 0.735 10.797 -0.578 12.159 -0.578 13.813 L 0.578 13.813 C 0.578 12.773 1.398 11.953 2.383 11.953 L 2.383 10.797 Z M -0.578 13.813 L -0.578 39 L 0.578 39 L 0.578 13.813 L -0.578 13.813 Z M -0.578 39 C -0.578 46.487 5.359 52.578 12.711 52.578 L 12.711 51.422 C 6.021 51.422 0.578 45.874 0.578 39 L -0.578 39 Z M 12.711 52.578 L 39.064 52.578 L 39.064 51.422 L 12.711 51.422 L 12.711 52.578 Z M 39.064 52.578 C 39.641 52.578 40.195 52.344 40.601 51.929 L 39.775 51.121 C 39.585 51.315 39.328 51.422 39.064 51.422 L 39.064 52.578 Z M 40.601 51.929 L 49.901 42.416 L 49.075 41.608 L 39.775 51.121 L 40.601 51.929 Z M 49.901 42.416 C 49.971 42.345 50.052 42.335 50.129 42.368 C 50.207 42.401 50.267 42.473 50.267 42.587 L 51.423 42.587 C 51.423 41.371 49.957 40.707 49.075 41.608 L 49.901 42.416 Z M 50.267 42.587 L 50.267 50.375 L 51.423 50.375 L 51.423 42.587 L 50.267 42.587 Z M 50.267 50.375 C 50.267 51.58 51.225 52.578 52.434 52.578 L 52.434 51.422 C 51.887 51.422 51.423 50.966 51.423 50.375 L 50.267 50.375 Z M 52.434 52.578 L 61.967 52.578 L 61.967 51.422 L 52.434 51.422 L 52.434 52.578 Z M 61.967 52.578 C 63.176 52.578 64.133 51.58 64.133 50.375 L 62.978 50.375 C 62.978 50.966 62.513 51.422 61.967 51.422 L 61.967 52.578 Z M 64.133 50.375 L 64.133 13 L 62.978 13 L 62.978 50.375 L 64.133 50.375 Z M 64.133 13 C 64.131 5.515 58.195 -0.578 50.843 -0.578 L 50.843 0.578 C 57.532 0.578 62.976 6.128 62.978 13 L 64.133 13 Z M 50.843 -0.578 L 13.505 -0.578 L 13.505 0.578 L 50.843 0.578 L 50.843 -0.578 Z M 13.505 -0.578 C 11.857 -0.578 10.544 0.784 10.544 2.438 L 11.7 2.438 C 11.7 1.398 12.52 0.578 13.505 0.578 L 13.505 -0.578 Z M 47.665 38.422 L 15.888 38.422 L 15.888 39.578 L 47.665 39.578 L 47.665 38.422 Z M 15.888 38.422 C 14.464 38.422 13.288 37.239 13.288 35.75 L 12.133 35.75 C 12.133 37.852 13.801 39.578 15.888 39.578 L 15.888 38.422 Z M 13.288 35.75 L 13.288 16.25 L 12.133 16.25 L 12.133 35.75 L 13.288 35.75 Z M 13.288 16.25 C 13.288 14.761 14.464 13.578 15.888 13.578 L 15.888 12.422 C 13.801 12.422 12.133 14.148 12.133 16.25 L 13.288 16.25 Z M 15.888 13.578 L 47.665 13.578 L 47.665 12.422 L 15.888 12.422 L 15.888 13.578 Z M 47.665 13.578 C 49.09 13.578 50.265 14.761 50.265 16.25 L 51.421 16.25 C 51.421 14.148 49.752 12.422 47.665 12.422 L 47.665 13.578 Z M 50.265 16.25 L 50.265 35.75 L 51.421 35.75 L 51.421 16.25 L 50.265 16.25 Z M 50.265 35.75 C 50.265 37.239 49.09 38.422 47.665 38.422 L 47.665 39.578 C 49.752 39.578 51.421 37.852 51.421 35.75 L 50.265 35.75 Z" fill="currentColor" fill-rule="nonzero"></path>
</svg>