<svg xmlns="http://www.w3.org/2000/svg" width="63.556" height="52" viewBox="0 0 63.556 52" fill="none">
  <path d="M 11.122 2.438 L 11.122 8.938 C 11.122 10.284 10.055 11.375 8.739 11.375 L 2.383 11.375 C 1.067 11.375 0 12.466 0 13.813 L 0 39 C 0 46.18 5.69 52 12.711 52 L 39.064 52 C 39.485 52 39.89 51.829 40.188 51.525 L 49.488 42.012 C 49.989 41.5 50.845 41.862 50.845 42.587 L 50.845 50.375 C 50.845 51.273 51.556 52 52.434 52 L 61.967 52 C 62.845 52 63.556 51.273 63.556 50.375 L 63.556 13 C 63.554 5.822 57.864 0 50.843 0 L 13.505 0 C 12.188 0 11.122 1.091 11.122 2.438 Z M 47.665 39 L 15.888 39 C 14.133 39 12.711 37.546 12.711 35.75 L 12.711 16.25 C 12.711 14.454 14.133 13 15.888 13 L 47.665 13 C 49.421 13 50.843 14.454 50.843 16.25 L 50.843 35.75 C 50.843 37.546 49.421 39 47.665 39 Z" fill="currentColor" fill-rule="nonzero"></path>
</svg>